<svg width="38" height="32" viewBox="0 0 38 32" fill="none" xmlns="http://www.w3.org/2000/svg">
    <path d="M1.72193 19.3333C1.72098 17.8606 2.15351 16.412 2.97864 15.1244C3.80377 13.8368 4.99425 12.7527 6.43757 11.9746C6.8185 9.40142 8.26872 7.03664 10.5168 5.32285C12.765 3.60905 15.6569 2.6637 18.6514 2.6637C21.646 2.6637 24.5379 3.60905 26.7861 5.32285C29.0342 7.03664 30.4844 9.40142 30.8653 11.9746C32.6556 12.9396 34.0482 14.3698 34.8442 16.0613C35.6403 17.7527 35.7991 19.6188 35.298 21.3931C34.7969 23.1674 33.6615 24.7592 32.054 25.9411C30.4465 27.1231 28.4489 27.8348 26.3467 27.9746L10.9562 28C5.79117 27.6346 1.72193 23.896 1.72193 19.3333ZM26.1128 25.316C27.5684 25.219 28.9515 24.726 30.0644 23.9074C31.1773 23.0887 31.9632 21.9863 32.3097 20.7576C32.6562 19.5289 32.5456 18.2368 31.9938 17.0658C31.442 15.8948 30.4771 14.9048 29.237 14.2373L27.995 13.5666L27.8103 12.3106C27.5226 10.3822 26.4342 8.61055 24.7485 7.32675C23.0628 6.04296 20.8951 5.33489 18.6507 5.33489C16.4062 5.33489 14.2386 6.04296 12.5529 7.32675C10.8671 8.61055 9.77872 10.3822 9.49104 12.3106L9.30635 13.5666L8.06742 14.2373C6.8274 14.9048 5.86255 15.8946 5.31067 17.0655C4.75879 18.2364 4.6481 19.5284 4.99441 20.7571C5.34073 21.9857 6.12633 23.0881 7.23903 23.9068C8.35172 24.7256 9.73459 25.2188 11.1901 25.316L11.4564 25.3333H25.8465L26.1128 25.316ZM20.1905 17.3333V22.6666H17.1124V17.3333H12.4953L18.6514 10.6666L24.8076 17.3333H20.1905Z" fill="black" fill-opacity="0.5"/>
</svg>
